<?xml version="1.0" encoding="utf-8"?>
<!-- Generator: Adobe Illustrator 26.3.1, SVG Export Plug-In . SVG Version: 6.00 Build 0)  -->
<svg version="1.1" id="a" xmlns="http://www.w3.org/2000/svg" xmlns:xlink="http://www.w3.org/1999/xlink" x="0px" y="0px"
	 viewBox="0 0 141.7 141.7" style="enable-background:new 0 0 141.7 141.7;" xml:space="preserve">
<style type="text/css">
	.st0{fill:#FFFFFF;}
</style>
<g>
	<path class="st0" d="M115.7,2.5c13.1,0,23.7,10.6,23.7,23.7v89.3c0,13.1-10.6,23.7-23.7,23.7H26.4c-13.1,0-23.7-10.6-23.7-23.7
		V26.2c0-13.1,10.6-23.7,23.7-23.7H115.7 M115.7,0H26.4C11.9,0,0.2,11.7,0.2,26.2v89.3c0,14.5,11.7,26.2,26.2,26.2h89.3
		c14.5,0,26.2-11.7,26.2-26.2V26.2C141.9,11.7,130.2,0,115.7,0L115.7,0z"/>
</g>
<g>
	<path class="st0" d="M70.6,44.3c14.7,0,26.6,11.9,26.6,26.6S85.3,97.4,70.6,97.4S44,85.5,44,70.9S56,44.3,70.6,44.3 M70.6,41.8
		c-16.1,0-29.1,13-29.1,29.1s13,29.1,29.1,29.1s29.1-13,29.1-29.1S86.7,41.8,70.6,41.8L70.6,41.8z"/>
</g>
<g>
	<path class="st0" d="M105.4,32.9c1.7,0,3.2,1.4,3.2,3.2s-1.4,3.2-3.2,3.2s-3.2-1.4-3.2-3.2S103.7,32.9,105.4,32.9 M105.4,30.4
		c-3.1,0-5.7,2.5-5.7,5.7s2.5,5.7,5.7,5.7s5.7-2.5,5.7-5.7S108.5,30.4,105.4,30.4C105.4,30.4,105.4,30.4,105.4,30.4z"/>
</g>
</svg>
