<?xml version="1.0" encoding="UTF-8"?><svg id="a" xmlns="http://www.w3.org/2000/svg" viewBox="0 0 141.73 141.73"><defs><style>.b{fill:#1d1d1b;}</style></defs><path class="b" d="M22.02,23.16c6.27,0,12.54,0,18.8,0,2.56,0,5.22,.38,8.13,1.15,1.84,.49,3.6,1.14,5.25,1.93,1.2,.57,2.41,1.35,3.83,2.43,2.03,1.55,3.71,3.56,5.14,6.16,.63,1.14,1.15,2.46,1.64,4.17,.73,2.54,.98,5.32,.78,8.51-.13,2.02-.64,4.04-1.49,6.01-1.04,2.37-2.44,4.44-4.18,6.16-1.28,1.27-2.75,2.3-4.35,3.07l-.08,.03c-.43,.18-1.32,.55-1.99,1.62-.39,.63-.48,1.41-.25,2.11,.24,.71,.78,1.27,1.47,1.54l.46,.18c.28,.11,.54,.2,.79,.31,.26,.11,.51,.22,.76,.34l.29,.13c3.9,1.79,6.81,4.5,8.9,8.26,1.08,1.95,1.83,4.12,2.3,6.65,.35,1.9,.43,3.92,.24,6.17-.24,2.81-.94,5.52-2.09,8.05-.83,1.82-1.87,3.43-3.11,4.79-.76,.83-1.58,1.66-2.47,2.47-.83,.76-1.87,1.47-3.19,2.18-1.31,.7-2.72,1.43-4.19,2.01-1.38,.54-2.92,.96-4.6,1.24-1.03,.18-2.07,.29-3.17,.42l-.59,.07c-1.2,.14-2.45,.15-3.73,.15h-.81c-6.39,0-12.78,0-19.16,0H2.51v-3.11c0-28.39,0-56.79,0-85.18H22.02m-.21,10.89h-2.14c-.3,0-.66,0-1.05,.05-1.42,.16-2.51,1.26-2.65,2.67-.04,.46-.05,.89-.05,1.25v12.33c0,2.34,0,4.67,0,7.01,0,2.69,1.14,3.84,3.8,3.84h.19c2.55,0,5.09,0,7.64,0,2.55,0,5.09,0,7.64,0h2.52c1.9,0,3.82-.35,5.88-1.08,2.46-.87,4.52-2.42,6.13-4.61,1.41-1.92,2.25-4.25,2.47-6.93,.21-2.56-.21-5-1.26-7.27-1.12-2.42-2.9-4.25-5.3-5.45-2.33-1.16-4.81-1.76-7.38-1.78-3.72-.02-7.41-.03-10.84-.03h-5.59m-2.26,66.55h8.41c2.67-.01,5.33-.02,8-.02,1.31,0,2.62,0,3.95,0,2.16,0,4.33-.42,6.47-1.24,4.46-1.72,7.26-5.01,8.1-9.53,.53-2.82,.38-5.58-.43-8.2-1.24-4.01-3.96-6.85-8.08-8.46-2.16-.84-4.54-1.26-7.28-1.27-2.78-.02-5.55-.02-8.33-.02-2,0-3.99,0-5.99,0h-4.59c-2.74,0-3.86,1.13-3.86,3.89,0,2.54,0,5.07,0,7.61v13.39c0,.27,0,.57,.02,.91,.13,1.66,1.25,2.78,2.94,2.92,.22,.02,.45,.02,.67,.02m2.47-79.94c-6.67,0-13.34,0-20,0h0c-.13,0-.27,0-.4,0-.28,0-.55,0-.83,.04-.24,.03-.47,.17-.71,.26-.12,.77-.06,1.48-.06,2.19,0,29.63,0,59.27,0,88.9,0,.34-.01,.68,0,1.01,.03,.67,.19,.83,.89,.88,.18,.01,.37,.02,.55,.02,.15,0,.31,0,.46,0,6.47,0,12.95,0,19.42,0s12.78,0,19.16,0h.11c.23,0,.47,0,.7,0,1.34,0,2.67-.01,4.01-.17,1.3-.15,2.6-.29,3.89-.51,1.74-.3,3.46-.74,5.09-1.38,1.53-.6,3.01-1.35,4.46-2.13,1.32-.71,2.59-1.52,3.7-2.54,.91-.84,1.79-1.71,2.62-2.62,1.47-1.62,2.64-3.45,3.54-5.44,1.28-2.83,2.05-5.79,2.31-8.88,.19-2.29,.15-4.58-.27-6.84-.48-2.59-1.28-5.08-2.57-7.4-2.33-4.21-5.67-7.31-10.04-9.32-.37-.17-.75-.35-1.13-.51-.41-.17-.82-.32-1.32-.51,.3-.49,.69-.56,1.02-.72,1.88-.9,3.55-2.09,5.03-3.55,2.02-2,3.57-4.33,4.71-6.93,.96-2.19,1.54-4.48,1.7-6.84,.21-3.15,.01-6.29-.87-9.36-.47-1.63-1.04-3.21-1.86-4.69-1.49-2.69-3.36-5.05-5.81-6.93-1.34-1.03-2.74-1.97-4.27-2.7-1.83-.88-3.73-1.57-5.69-2.09-2.88-.76-5.79-1.23-8.77-1.23-6.27,0-12.54,0-18.81,0h0Zm-.21,15.89c1.86,0,3.73,0,5.59,0,3.61,0,7.22,0,10.83,.03,2.19,.01,4.32,.53,6.28,1.52,1.86,.93,3.26,2.34,4.15,4.26,.89,1.92,1.21,3.94,1.03,6.02-.17,2.04-.76,3.98-1.99,5.65-1.27,1.73-2.91,3.01-4.95,3.73-1.63,.58-3.3,.94-5.04,.94h-.01c-.84,0-1.68,0-2.51,0-5.09,0-10.18,.01-15.28,.01h-.19c-1.28,0-1.3-.02-1.3-1.34,0-3.26,0-6.52,0-9.78h0c0-3.19,0-6.37,0-9.56,0-.34,0-.68,.04-1.01,.02-.25,.2-.4,.44-.43,.25-.03,.51-.03,.77-.03h.01c.71,0,1.42,0,2.12,0h0Zm-2.26,61.55c-.16,0-.32,0-.47-.02-.45-.04-.61-.19-.65-.62-.02-.3-.01-.6-.01-.9,0-3.45,0-6.9,0-10.35,0-3.49,0-6.97,0-10.46,0-1.38,0-1.39,1.36-1.39,3.53,0,7.05,0,10.58,0,2.77,0,5.54,0,8.31,.02,2.18,.01,4.34,.3,6.39,1.1,3.26,1.27,5.55,3.48,6.6,6.88,.71,2.3,.8,4.65,.36,7-.71,3.8-2.99,6.29-6.54,7.65-1.79,.69-3.64,1.07-5.57,1.07h-.02c-1.31,0-2.62,0-3.93,0-4.2,0-8.4,0-12.6,.01-1.16,0-2.32,0-3.49,0-.1,0-.21,0-.31,0h0Z"/><path class="b" d="M108.64,48.87h0m-.03,0c.34,.01,.69,.02,1.03,.03,.96,.03,1.87,.06,2.75,.15,1.37,.15,2.82,.39,4.31,.7,4.38,.91,8.35,2.8,11.79,5.62,2.88,2.36,5.14,5.16,6.71,8.31,.89,1.78,1.8,3.71,2.39,5.71,.49,1.66,.88,3.42,1.2,5.39,.34,2.09,.48,4.28,.43,6.72-.01,.67-.01,1.35,0,2.03v.05h-43.3c-.07,0-.13,0-.2,0-1.1,0-1.97,.36-2.58,1.07-.62,.72-.85,1.66-.68,2.8,.46,3.07,1.36,5.6,2.76,7.73,1.78,2.71,4.18,4.79,7.13,6.2,1.81,.86,3.68,1.26,5.28,1.54,.54,.09,1.13,.14,1.78,.14,.51,0,.99-.03,1.39-.05,2.61-.17,4.71-.63,6.61-1.43,2.24-.95,4.19-2.46,5.96-4.61,.27-.33,.53-.68,.81-1.09h5.01c2.93,0,5.87,0,8.8,0-1.12,2.88-2.69,5.48-4.7,7.77-1.16,1.32-2.44,2.51-3.82,3.54-3.75,2.81-7.96,4.67-12.51,5.52-1.66,.31-3.63,.63-5.65,.63-.23,0-.47,0-.71-.01-.32-.01-.64-.02-.96-.02s-.61,0-.92,.02c-.19,0-.38,.01-.58,.01-1.79,0-3.6-.32-5.29-.66-2.57-.52-5.02-1.36-7.31-2.52-2.34-1.18-4.55-2.67-6.56-4.42-1.47-1.27-2.72-2.85-3.75-4.22-1.72-2.29-3.05-4.75-3.97-7.32-.65-1.8-1.18-3.76-1.68-6.16-.25-1.21-.36-2.46-.47-3.78-.07-.77-.13-1.56-.23-2.37-.02-.15,0-.39,0-.47,.03-.5,.04-1.01,.06-1.52,.06-1.52,.11-2.96,.35-4.33,.6-3.35,1.41-6.21,2.49-8.72,1.42-3.3,3.39-6.25,6.04-9.02,2.39-2.5,5.3-4.57,8.64-6.16,2.19-1.04,4.18-1.72,6.08-2.09l.42-.08c1.3-.25,2.54-.49,3.72-.49,.1,0,.21,0,.31,0,.06,0,.12,0,.18,0,.32,0,.6-.03,.83-.06l.2-.02c.12-.01,.24-.03,.36-.04h.08m-12.08,27.13h12.5c4.04,0,8.08,0,12.12,0,.05,0,.1,0,.15,0,.13,0,.26,.01,.39,.01,.7,0,1.32-.15,1.89-.45,.46-.25,.82-.62,1.05-1.09,.08-.14,.32-.57,.35-1.18v-.05c.01-.18,.02-.42,0-.7-.17-2.21-.79-4.34-1.86-6.34-1.29-2.41-3.17-4.28-5.59-5.56-1.62-.86-3.45-1.4-5.77-1.71-.99-.13-1.96-.2-2.89-.2-1.3,0-2.57,.13-3.78,.39-5.47,1.17-9.45,4.58-11.51,9.86-.42,1.06-.71,2.21-.87,3.4-.14,1.01,.08,1.87,.64,2.54,.57,.67,1.38,1.03,2.41,1.06,.25,0,.51,.01,.76,.01m28,19.31h0m-15.95-48.95c-.21,0-.41,.05-.62,.06-.27,.02-.54,.07-.81,.07-.03,0-.06,0-.08,0-.13,0-.27,0-.4,0-1.56,0-3.08,.32-4.6,.62-2.33,.45-4.54,1.27-6.68,2.29-3.52,1.68-6.67,3.87-9.37,6.69-2.75,2.87-4.96,6.09-6.53,9.76-1.28,2.98-2.09,6.09-2.65,9.27-.36,2.03-.35,4.1-.45,6.16-.02,.3-.02,.6,.02,.9,.26,2.12,.29,4.25,.74,6.36,.46,2.21,1.02,4.38,1.78,6.49,1.03,2.88,2.49,5.53,4.33,7.98,1.24,1.65,2.55,3.26,4.11,4.61,2.16,1.87,4.52,3.47,7.07,4.76,2.52,1.28,5.17,2.18,7.94,2.74,1.91,.38,3.83,.71,5.79,.71,.22,0,.45,0,.67-.01,.27-.01,.55-.02,.82-.02,.29,0,.58,0,.87,.02,.27,.01,.54,.02,.8,.02,2.06,0,4.09-.29,6.11-.67,4.99-.94,9.5-2.94,13.55-5.98,1.53-1.15,2.93-2.44,4.2-3.89,2.61-2.98,4.5-6.35,5.72-10.1,.12-.36,.21-.72,.29-1.09,.07-.34-.1-.61-.43-.66-.33-.05-.67-.06-1.01-.06-3.51,0-7.03,0-10.54,0-1.7,0-3.4,0-5.09,0-.17,0-.34,0-.52,0h-.06c-.48,0-.84,.2-1.1,.62-.3,.47-.62,.94-.97,1.38-1.37,1.67-2.97,3.04-5,3.9-1.86,.79-3.81,1.11-5.79,1.24-.41,.03-.82,.05-1.23,.05-.46,0-.91-.03-1.35-.1-1.58-.27-3.16-.63-4.63-1.33-2.53-1.21-4.58-2.97-6.11-5.31-1.34-2.05-2.02-4.33-2.38-6.73-.12-.79,.1-1,.79-1,.04,0,.08,0,.12,0,.06,0,.13,0,.19,0,.12,0,.25,0,.37,0,7.27,0,14.55,0,21.82,0,2.82,0,5.63,0,8.45,0,1.31,0,2.61,0,3.92,0,1.97,0,3.94,0,5.91,0,1.14,0,2.29,0,3.43,0,.37,0,.75,0,1.12-.04,.4-.04,.59-.24,.64-.66,.03-.26,.03-.52,.03-.79,0-1.01-.01-2.03,0-3.04,.05-2.4-.08-4.79-.46-7.17-.31-1.93-.72-3.83-1.27-5.7-.63-2.13-1.56-4.13-2.55-6.12-1.79-3.58-4.29-6.61-7.36-9.13-3.77-3.09-8.08-5.15-12.86-6.14-1.5-.31-3.02-.56-4.54-.73-1.34-.15-2.69-.15-4.04-.2-.02,0-.04,0-.05,0h0Zm-12.05,27.14c-.23,0-.45,0-.68-.01-.6-.02-.74-.19-.66-.76,.13-.97,.37-1.91,.72-2.82,1.75-4.5,4.98-7.32,9.7-8.33,1.08-.23,2.16-.33,3.25-.33,.85,0,1.7,.06,2.56,.18,1.73,.23,3.39,.63,4.93,1.44,1.97,1.04,3.5,2.54,4.55,4.52,.9,1.68,1.43,3.45,1.57,5.35,.01,.15,0,.3,0,.45,0,.03-.03,.07-.09,.18-.23,.13-.47,.15-.7,.15-.18,0-.36-.02-.54-.02h0c-4.04,0-8.08,0-12.12,0s-7.74,0-11.6,0h0c-.3,0-.6,0-.89,0h0Z"/></svg>