<?xml version="1.0" encoding="UTF-8"?><svg id="a" xmlns="http://www.w3.org/2000/svg" viewBox="0 0 141.73 141.73"><defs><style>.b{fill:#1d1d1b;}</style></defs><path class="b" d="M10.39,64.75V15.58c0-1.2,.26-5.38,3.62-8.74,2.34-2.33,5.44-3.62,8.74-3.62,.77,0,1.66-.01,2.65-.03,2.43-.04,5.45-.08,9.11,.03,.78,.05,1.28-.53,1.3-1.22,.02-.7-.53-1.28-1.22-1.3-3.71-.1-6.76-.06-9.22-.03-.98,.01-1.86,.03-2.62,.03-3.97,0-7.71,1.55-10.52,4.36-4.04,4.04-4.36,9.07-4.36,10.52v48.67l-7.06,7.47c-.24,.25-.36,.59-.34,.94,.02,.35,.18,.67,.45,.89l6.95,5.82v47.38c0,8.2,6.67,14.88,14.88,14.88h11.79c.7,0,1.26-.56,1.26-1.26s-.56-1.26-1.26-1.26h-11.79c-6.81,0-12.36-5.54-12.36-12.36v-47.97c0-.37-.16-.73-.45-.96l-6.38-5.35,6.49-6.86c.22-.23,.34-.54,.34-.87Z"/><path class="b" d="M141.31,69.84l-7.13-6.83V15.58c0-8.2-6.67-14.88-14.88-14.88h-11.79c-.7,0-1.26,.56-1.26,1.26s.56,1.26,1.26,1.26h11.79c6.81,0,12.36,5.54,12.36,12.36V63.55c0,.34,.14,.67,.39,.91l6.55,6.27-6.52,5.93c-.26,.24-.41,.58-.41,.93v49.17c0,1.2-.26,5.38-3.62,8.74-2.34,2.33-5.44,3.62-8.74,3.62-.77,0-1.65,.01-2.65,.03-2.43,.03-5.45,.08-9.11-.03-.78-.05-1.28,.53-1.3,1.22-.02,.7,.53,1.28,1.22,1.3,1.75,.05,3.35,.07,4.82,.07,1.64,0,3.1-.02,4.4-.04,.98-.01,1.86-.03,2.61-.03,3.97,0,7.71-1.55,10.52-4.36,4.04-4.04,4.36-9.07,4.36-10.52v-48.61l7.11-6.46c.26-.24,.41-.57,.41-.92s-.14-.69-.39-.93Z"/><path class="b" d="M42.38,65.67c-3.06,0-5.54,2.48-5.54,5.54s2.49,5.54,5.54,5.54,5.54-2.48,5.54-5.54-2.48-5.54-5.54-5.54Zm0,8.56c-1.67,0-3.02-1.36-3.02-3.02s1.36-3.02,3.02-3.02,3.02,1.36,3.02,3.02-1.36,3.02-3.02,3.02Z"/><path class="b" d="M71.02,65.67c-3.06,0-5.54,2.48-5.54,5.54s2.48,5.54,5.54,5.54,5.54-2.48,5.54-5.54-2.49-5.54-5.54-5.54Zm0,8.56c-1.67,0-3.02-1.36-3.02-3.02s1.36-3.02,3.02-3.02,3.02,1.36,3.02,3.02-1.36,3.02-3.02,3.02Z"/><path class="b" d="M99.66,65.67c-3.06,0-5.54,2.48-5.54,5.54s2.48,5.54,5.54,5.54,5.54-2.48,5.54-5.54-2.49-5.54-5.54-5.54Zm0,8.56c-1.67,0-3.02-1.36-3.02-3.02s1.36-3.02,3.02-3.02,3.02,1.36,3.02,3.02-1.36,3.02-3.02,3.02Z"/></svg>