<?xml version="1.0" encoding="UTF-8"?><svg id="Capa_1" xmlns="http://www.w3.org/2000/svg" viewBox="0 0 141.732 141.732"><defs><style>.cls-1{fill:#fff;}.cls-2{fill:#63bc9e;opacity:.7;}.cls-3{fill:#62bc9d;opacity:.42;}</style></defs><path class="cls-2" d="M69.119,5.714c.132,0,.266,.007,.412,.021,.607,.059,1.179,.249,1.701,.565l.06,.036,.061,.035,50.203,28.596c1.273,.725,2.063,2.085,2.063,3.549V104.421c0,1.494-.814,2.868-2.125,3.584l-50.415,27.56c-.601,.328-1.279,.501-1.962,.501-.713,0-1.437-.19-2.044-.536l-50.412-28.732c-1.271-.724-2.061-2.084-2.061-3.547l.017-65.907c0-1.493,.814-2.866,2.125-3.582L67.155,6.218c.605-.33,1.284-.504,1.964-.504m0-5.323c-1.59,0-3.142,.406-4.513,1.154L14.19,29.091c-3.019,1.648-4.896,4.813-4.896,8.253l-.017,65.906c0,3.38,1.811,6.5,4.749,8.174l50.411,28.732c1.418,.81,3.046,1.235,4.679,1.235,1.576,0,3.129-.397,4.512-1.152l50.418-27.562c3.017-1.65,4.894-4.815,4.894-8.255V38.516c0-3.38-1.813-6.5-4.751-8.174L73.987,1.746c-1.218-.737-2.565-1.174-3.939-1.308-.31-.031-.621-.046-.929-.046h0Z"/><path class="cls-3" d="M124.19,30.342L73.987,1.746c-1.218-.737-2.565-1.174-3.939-1.308-1.911-.191-3.805,.215-5.442,1.108L14.19,29.091c-3.019,1.648-4.896,4.813-4.896,8.253l-.017,65.906c0,3.38,1.811,6.5,4.749,8.174l50.411,28.732c1.418,.81,3.046,1.235,4.679,1.235,1.576,0,3.129-.397,4.512-1.152l50.418-27.562c3.017-1.65,4.894-4.815,4.894-8.255V38.516c0-3.38-1.813-6.5-4.751-8.174Z"/><g><path class="cls-1" d="M35.697,84.743c1.965,2.37,4.606,4.47,8.535,4.47,5.555,0,9.076-3.86,9.076-9.483v-31.499h5.623v31.566c0,9.823-6.298,14.428-14.361,14.428-4.808,0-8.67-1.558-11.786-5.215l2.913-4.268Z"/><path class="cls-1" d="M70.101,82.778c2.98,3.32,7.858,6.435,14.225,6.435,8.061,0,10.635-4.335,10.635-7.79,0-5.418-5.487-6.908-11.448-8.534-7.248-1.897-15.308-3.93-15.308-12.803,0-7.451,6.638-12.531,15.511-12.531,6.91,0,12.261,2.303,16.053,6.298l-3.386,4.132c-3.387-3.725-8.13-5.42-13.075-5.42-5.418,0-9.279,2.913-9.279,7.18,0,4.54,5.215,5.895,10.973,7.452,7.383,1.963,15.783,4.268,15.783,13.751,0,6.57-4.472,13.276-16.663,13.276-7.858,0-13.616-2.98-17.341-7.18l3.318-4.268Z"/></g></svg>