<?xml version="1.0" encoding="UTF-8"?><svg id="a" xmlns="http://www.w3.org/2000/svg" viewBox="0 0 141.73 141.73"><defs><style>.b{fill:#1d1d1b;}</style></defs><path class="b" d="M115.74,2.5c13.07,0,23.7,10.63,23.7,23.7V115.54c0,13.07-10.63,23.7-23.7,23.7H26.4c-13.07,0-23.7-10.63-23.7-23.7V26.2C2.7,13.13,13.33,2.5,26.4,2.5H115.74M115.74,0H26.4C11.93,0,.2,11.73,.2,26.2V115.54c0,14.47,11.73,26.2,26.2,26.2H115.74c14.47,0,26.2-11.73,26.2-26.2V26.2C141.93,11.73,130.2,0,115.74,0h0Z"/><path class="b" d="M70.62,44.28c14.66,0,26.58,11.93,26.58,26.58s-11.93,26.58-26.58,26.58-26.58-11.93-26.58-26.58,11.93-26.58,26.58-26.58m0-2.5c-16.06,0-29.08,13.02-29.08,29.08s13.02,29.08,29.08,29.08,29.08-13.02,29.08-29.08-13.02-29.08-29.08-29.08h0Z"/><path class="b" d="M105.44,32.92c1.74,0,3.15,1.41,3.15,3.15s-1.41,3.15-3.15,3.15-3.15-1.41-3.15-3.15,1.41-3.15,3.15-3.15m0-2.5c-3.12,0-5.65,2.53-5.65,5.65s2.53,5.65,5.65,5.65,5.65-2.53,5.65-5.65-2.53-5.65-5.65-5.65h0Z"/></svg>