<?xml version="1.0" encoding="UTF-8"?><svg id="a" xmlns="http://www.w3.org/2000/svg" viewBox="0 0 141.73 141.73"><defs><style>.b{fill:#1d1d1b;}</style></defs><path class="b" d="M109.3,32.46s-.02-.01-.03-.02C101.76,17.17,88.16,5.11,71.22,.09c-.03,0-.07,0-.1,0-.08-.02-.16-.05-.25-.05s-.17,.03-.25,.05c-.03,0-.07,0-.1,0-16.95,5.02-30.54,17.07-38.04,32.34-.01,0-.02,.01-.03,.02-.21,.21-.31,.48-.34,.76-3.84,8.1-6.02,17.07-6.02,26.38,0,26.97,17.87,51.16,43.55,59.2v21.7c0,.69,.56,1.24,1.24,1.24s1.24-.56,1.24-1.24v-21.7c25.68-8.04,43.55-32.23,43.55-59.2,0-9.31-2.17-18.28-6.02-26.38-.03-.28-.13-.55-.34-.76Zm-39.67,83.72c-22.99-7.54-39.27-28.61-40.9-52.62l40.78,40.78s.08,.05,.12,.08v11.76Zm0-15.23L28.57,59.9c0-.1-.01-.2-.01-.3,0-8.46,1.86-16.63,5.18-24.08l35.88,35.88v29.54Zm0-33.05L34.87,33.14c2.89-5.78,6.69-11.08,11.25-15.65,.03,.04,.05,.1,.09,.14l23.15,23.15c.08,.08,.17,.12,.26,.17v26.94Zm0-30.37L47.97,15.87s-.05-.03-.08-.05c6.15-5.68,13.5-10.11,21.73-12.81V37.52Zm2.48-34.51c8.23,2.7,15.58,7.13,21.73,12.81-.02,.02-.05,.03-.08,.05l-21.65,21.65V3.01Zm0,37.93c.09-.05,.18-.09,.26-.17l23.15-23.15s.06-.09,.09-.14c4.56,4.57,8.36,9.87,11.25,15.65l-34.75,34.75v-26.95Zm0,75.23v-11.76s.08-.04,.12-.08l40.78-40.78c-1.63,24.01-17.91,45.09-40.9,52.62Zm41.05-56.28l-41.05,41.05v-29.54l35.88-35.88c3.33,7.45,5.18,15.61,5.18,24.08,0,.1-.01,.2-.01,.3Z"/></svg>