<?xml version="1.0" encoding="UTF-8"?><svg id="a" xmlns="http://www.w3.org/2000/svg" viewBox="0 0 141.73 141.73"><defs><style>.b{fill:#1d1d1b;}</style></defs><path class="b" d="M70.19,21.58h-.13c-25.21,.07-38.58,22.13-39.14,23.07-11.41,19.25-4.04,39.33-.9,47.9,2.89,7.88,9.31,22.37,19.95,31.32-.15,.38-.25,.79-.25,1.22,0,9.18,7.47,16.65,16.65,16.65h6c8.94,0,16.22-7.27,16.22-16.22v-.43c0-.4-.1-.77-.23-1.12,11.13-8.97,18.13-23.55,20.63-29.41,3.64-8.54,12.17-28.54,1.26-48.5-.55-1-13.68-24.46-40.05-24.46Zm15.89,103.94c0,7.56-6.15,13.71-13.71,13.71h-6c-7.8,0-14.15-6.35-14.15-14.15,0-.42,.34-.77,.77-.77h32.32c.42,0,.77,.34,.77,.77v.43Zm20.61-31.95c-2.41,5.65-9.11,19.62-19.65,28.25H51.42c-10.1-8.59-16.26-22.53-19.04-30.13-3.02-8.24-10.1-27.54,.7-45.76,.53-.89,13.18-21.77,36.99-21.84h.12c24.91,0,37.74,22.93,37.86,23.16,10.33,18.89,2.14,38.11-1.36,46.32Z"/><path class="b" d="M69.98,13.15c.69,0,1.25-.56,1.25-1.25V1.29c0-.69-.56-1.25-1.25-1.25s-1.25,.56-1.25,1.25V11.9c0,.69,.56,1.25,1.25,1.25Z"/><path class="b" d="M29.76,32.55c.32,0,.64-.12,.88-.37,.49-.49,.49-1.28,0-1.77l-7.5-7.5c-.49-.49-1.28-.49-1.77,0s-.49,1.28,0,1.77l7.5,7.5c.24,.24,.56,.37,.88,.37Z"/><path class="b" d="M16.51,70.19H5.91c-.69,0-1.25,.56-1.25,1.25s.56,1.25,1.25,1.25h10.6c.69,0,1.25-.56,1.25-1.25s-.56-1.25-1.25-1.25Z"/><path class="b" d="M116.53,22.92l-7.5,7.5c-.49,.49-.49,1.28,0,1.77,.24,.24,.56,.37,.88,.37s.64-.12,.88-.37l7.5-7.5c.49-.49,.49-1.28,0-1.77s-1.28-.49-1.77,0Z"/><path class="b" d="M135.82,70.19h-10.6c-.69,0-1.25,.56-1.25,1.25s.56,1.25,1.25,1.25h10.6c.69,0,1.25-.56,1.25-1.25s-.56-1.25-1.25-1.25Z"/></svg>