<?xml version="1.0" encoding="UTF-8"?><svg id="a" xmlns="http://www.w3.org/2000/svg" viewBox="0 0 141.73 141.73"><defs><style>.b{fill:#fff;}</style></defs><path class="b" d="M51.71,0H12.61c-.69,0-1.24,.56-1.24,1.24V140.49c0,.69,.56,1.24,1.24,1.24H51.71c.69,0,1.24-.56,1.24-1.24V1.24c0-.69-.56-1.24-1.24-1.24Zm-1.24,139.25H13.86v-11.11h9.3c.69,0,1.24-.56,1.24-1.24s-.56-1.24-1.24-1.24H13.86v-13.31H29.86c.69,0,1.24-.56,1.24-1.24s-.56-1.24-1.24-1.24H13.86v-13.3h9.3c.69,0,1.24-.56,1.24-1.24s-.56-1.24-1.24-1.24H13.86v-13.31H29.86c.69,0,1.24-.56,1.24-1.24s-.56-1.24-1.24-1.24H13.86v-13.3h9.3c.69,0,1.24-.56,1.24-1.24s-.56-1.24-1.24-1.24H13.86v-13.31H29.86c.69,0,1.24-.56,1.24-1.24s-.56-1.24-1.24-1.24H13.86v-13.3h9.3c.69,0,1.24-.56,1.24-1.24s-.56-1.24-1.24-1.24H13.86v-13.31H29.86c.69,0,1.24-.56,1.24-1.24s-.56-1.24-1.24-1.24H13.86V2.48H50.47V139.25Z"/><path class="b" d="M130.36,34.41s0-.02,0-.02c0-.2-.06-.38-.15-.54-.01-.02,0-.04-.02-.06L110.64,.61c-.45-.76-1.69-.76-2.14,0l-19.55,33.17s0,.04-.02,.06c-.09,.16-.14,.34-.15,.54,0,0,0,.02,0,.02h0v106.08c0,.69,.56,1.24,1.24,1.24h39.1c.69,0,1.24-.56,1.24-1.24V34.42h0ZM109.57,3.69l17.38,29.49h-34.75L109.57,3.69Zm5.18,31.97V115.25h-10.35V35.66h10.35Zm-23.48,0h10.65V115.25h-10.65V35.66Zm36.61,103.59h-36.61v-21.51h36.61v21.51Zm0-24h-10.65V35.66h10.65V115.25Z"/></svg>