<?xml version="1.0" encoding="utf-8"?>
<!-- Generator: Adobe Illustrator 26.3.1, SVG Export Plug-In . SVG Version: 6.00 Build 0)  -->
<svg version="1.1" id="a" xmlns="http://www.w3.org/2000/svg" xmlns:xlink="http://www.w3.org/1999/xlink" x="0px" y="0px"
	 viewBox="0 0 141.7 141.7" style="enable-background:new 0 0 141.7 141.7;" xml:space="preserve">
<style type="text/css">
	.st0{fill:#FFFFFF;}
	.st1{fill:none;stroke:#FFFFFF;stroke-width:2.5;stroke-linecap:round;}
	.st2{fill:none;stroke:#FFFFFF;stroke-width:2.5;stroke-linecap:round;stroke-linejoin:round;}
</style>
<g>
	<path class="st0" d="M30.6,53v86.3H4.1V53H30.6 M33.1,50.5H1.6v91.3h31.5L33.1,50.5L33.1,50.5L33.1,50.5z"/>
</g>
<polyline class="st1" points="139.5,47.5 139.5,140.5 108,140.5 "/>
<polyline class="st1" points="86.3,140.5 54.8,140.5 54.8,47.5 "/>
<path class="st0" d="M17.4,2.7c7.3,0,13.2,5.9,13.2,13.2s-5.9,13.3-13.2,13.3S4.1,23.2,4.1,15.9S10.1,2.7,17.4,2.7 M17.4,0.2
	C8.7,0.2,1.6,7.2,1.6,15.9s7.1,15.7,15.8,15.7s15.7-7,15.7-15.8S26.1,0.2,17.4,0.2L17.4,0.2z"/>
<path class="st2" d="M54.8,47.6c0-23.3,18.9-42.3,42.3-42.3s42.3,18.9,42.3,42.3"/>
<path class="st1" d="M86.3,140.5v-93c0-5.9,4.8-10.7,10.8-10.7S108,41.6,108,47.5v93"/>
</svg>
