<?xml version="1.0" encoding="UTF-8"?><svg id="a" xmlns="http://www.w3.org/2000/svg" viewBox="0 0 141.73 141.73"><defs><style>.b{fill:#1d1d1b;}</style></defs><path class="b" d="M120.76,21.33C103.43,2.88,80.5,.72,71.44,.65c-9.21-.11-32.73,1.79-50.47,20.69-.71,.76-17.45,18.84-17.77,43.52-.41,32.2,27.26,63.78,67.28,76.79,.12,.04,.25,.06,.38,.06s.26-.02,.38-.06c40.04-13.04,67.71-44.61,67.28-76.79-.33-24.69-17.05-42.75-17.77-43.52Zm-49.9,117.83C32.07,126.41,5.27,95.91,5.67,64.88c.3-23.73,16.41-41.13,17.1-41.86C39.53,5.17,61.65,3.11,70.91,3.11c.17,0,.34,0,.51,0,8.74,.07,30.86,2.16,47.54,19.91,.69,.73,16.78,18.12,17.1,41.86,.41,31-26.38,61.5-65.19,74.28Z"/><path class="b" d="M70.87,65.77c-3,0-5.44,2.44-5.44,5.44s2.44,5.44,5.44,5.44,5.44-2.44,5.44-5.44-2.44-5.44-5.44-5.44Zm0,8.4c-1.64,0-2.96-1.33-2.96-2.96s1.33-2.96,2.96-2.96,2.96,1.33,2.96,2.96-1.33,2.96-2.96,2.96Z"/></svg>