<?xml version="1.0" encoding="UTF-8"?><svg id="a" xmlns="http://www.w3.org/2000/svg" viewBox="0 0 141.73 141.73"><defs><style>.b{fill:#fff;}</style></defs><path class="b" d="M71.22,.05c-.23-.07-.48-.07-.71,0C39.37,9.27,17.63,38.39,17.63,70.87s21.75,61.59,52.88,70.81c.12,.03,.23,.05,.35,.05s.24-.02,.35-.05c31.14-9.22,52.89-38.34,52.89-70.81S102.36,9.27,71.22,.05Zm-.35,139.14c-29.9-9.03-50.75-37.07-50.75-68.33S40.96,11.56,70.87,2.54c29.9,9.03,50.76,37.07,50.76,68.33s-20.85,59.3-50.76,68.33Z"/><path class="b" d="M83.47,39.63c.69,0,1.24-.56,1.24-1.24s-.56-1.24-1.24-1.24h-11.36v-10.68c0-.69-.56-1.24-1.24-1.24s-1.24,.56-1.24,1.24v10.68h-11.36c-.69,0-1.24,.56-1.24,1.24s.56,1.24,1.24,1.24h11.36v30h-11.36c-.69,0-1.24,.56-1.24,1.24s.56,1.24,1.24,1.24h11.36v30h-11.36c-.69,0-1.24,.56-1.24,1.24s.56,1.24,1.24,1.24h11.36v15.53c0,.69,.56,1.24,1.24,1.24s1.24-.56,1.24-1.24v-15.53h11.36c.69,0,1.24-.56,1.24-1.24s-.56-1.24-1.24-1.24h-11.36v-30h11.36c.69,0,1.24-.56,1.24-1.24s-.56-1.24-1.24-1.24h-11.36v-30h11.36Z"/></svg>