<?xml version="1.0" encoding="UTF-8"?><svg id="Capa_1" xmlns="http://www.w3.org/2000/svg" xmlns:xlink="http://www.w3.org/1999/xlink" viewBox="0 0 141.732 141.732"><defs><style>.cls-1,.cls-2{fill:#9293c8;}.cls-3{fill:url(#Degradado_sin_nombre_60);opacity:.42;}.cls-2{opacity:.7;}</style><radialGradient id="Degradado_sin_nombre_60" cx="382.676" cy="1623.535" fx="382.676" fy="1623.535" r="70.473" gradientTransform="translate(-311.832 -1552.756)" gradientUnits="userSpaceOnUse"><stop offset="0" stop-color="#a3a8d5"/><stop offset="1" stop-color="#9293c8"/></radialGradient></defs><path class="cls-2" d="M70.844,5.638c17.4,0,33.758,6.776,46.062,19.08,25.398,25.398,25.398,66.725,0,92.123-12.304,12.303-28.662,19.079-46.062,19.079s-33.758-6.776-46.062-19.079c-25.398-25.399-25.398-66.725,0-92.124C37.086,12.414,53.444,5.638,70.844,5.638m0-5.332C52.808,.306,34.772,7.187,21.012,20.947h0c-27.521,27.522-27.521,72.143,0,99.664h0c13.761,13.761,31.796,20.641,49.832,20.641s36.071-6.88,49.832-20.641h0c27.521-27.522,27.521-72.143,0-99.664h0C106.915,7.187,88.879,.306,70.844,.306h0Z"/><rect class="cls-3" x=".371" y=".306" width="140.946" height="140.946" rx="70.473" ry="70.473" transform="translate(70.798 -29.363) rotate(45)"/><g><path class="cls-1" d="M26.296,93.652h-5.28l8.682-39.127h5.28l-.939,3.931c2.406-2.933,5.455-4.634,9.151-4.634,6.452,0,10.91,4.282,10.91,11.731,0,8.975-5.631,18.009-14.9,18.009-4.223,0-7.684-1.937-9.62-4.987l-3.285,15.076Zm14.841-35.139c-3.344,0-6.335,1.994-8.095,4.459l-2.581,11.731c1.349,2.347,4.224,4.166,8.036,4.166,5.984,0,10.031-5.983,10.031-12.32,0-4.926-3.05-8.036-7.391-8.036Z"/><path class="cls-1" d="M76.27,82.858l3.989-18.185c.117-.469,.293-1.408,.293-1.878,0-3.05-2.406-4.282-5.573-4.282-3.05,0-6.101,2.053-8.153,4.166l-4.4,20.179h-5.279l8.623-39.127h5.279l-3.285,14.783c2.405-2.288,5.749-4.692,9.855-4.692,5.162,0,8.565,2.581,8.565,7.097,0,.528-.176,1.76-.293,2.347l-4.341,19.592h-5.28Z"/><path class="cls-1" d="M92.866,93.652h-5.28l8.682-39.127h5.28l-.939,3.931c2.406-2.933,5.455-4.634,9.151-4.634,6.452,0,10.91,4.282,10.91,11.731,0,8.975-5.631,18.009-14.9,18.009-4.223,0-7.684-1.937-9.62-4.987l-3.285,15.076Zm14.841-35.139c-3.344,0-6.335,1.994-8.095,4.459l-2.581,11.731c1.349,2.347,4.224,4.166,8.036,4.166,5.984,0,10.031-5.983,10.031-12.32,0-4.926-3.05-8.036-7.391-8.036Z"/></g></svg>