<?xml version="1.0" encoding="UTF-8"?><svg id="a" xmlns="http://www.w3.org/2000/svg" viewBox="0 0 141.73 141.73"><defs><style>.b{fill:#1d1d1b;}</style></defs><path class="b" d="M74.05,1.62c-.73-1.01-1.9-1.62-3.15-1.62h0s-.03,0-.05,0c0,0-.02,0-.03,0-.04,0-.08,.02-.12,.02-1.17,.06-2.26,.64-2.95,1.59L19.95,68.41c-2.54,3.55-2.85,8.16-.8,12.01l14.9,28.02c.15,.29,.35,.54,.56,.78v27.37c0,2.84,2.31,5.15,5.15,5.15h62.32c2.82,0,5.11-2.29,5.11-5.11v-27.52c.17-.21,.35-.42,.48-.66l14.9-28.02c2.05-3.85,1.75-8.46-.79-12.01L74.05,1.62Zm-3.22,69.46c1.76,0,3.2,1.43,3.2,3.2s-1.43,3.2-3.2,3.2-3.2-1.43-3.2-3.2,1.43-3.2,3.2-3.2Zm33.71,65.54c0,1.35-1.1,2.45-2.45,2.45H39.76c-1.37,0-2.48-1.11-2.48-2.48v-26.1H104.53v26.13Zm15.69-57.45l-14.9,28.02c-.21,.39-.61,.63-1.06,.63H37.47c-.45,0-.85-.24-1.06-.63l-14.9-28.02c-1.57-2.96-1.34-6.49,.61-9.21L69.49,3.78V68.58c-2.59,.61-4.53,2.93-4.53,5.7,0,3.23,2.63,5.86,5.86,5.86s5.86-2.63,5.86-5.86c0-2.77-1.94-5.09-4.53-5.7V3.56l47.46,66.4c1.95,2.72,2.18,6.25,.61,9.21Z"/></svg>