<?xml version="1.0" encoding="UTF-8"?><svg id="a" xmlns="http://www.w3.org/2000/svg" viewBox="0 0 141.73 141.73"><defs><style>.b{fill:#fff;}</style></defs><path class="b" d="M126.76,46.71c-.77-1.49-2.29-2.42-3.98-2.42h-43.48c-1.04,0-1.9-.84-1.92-1.88l-.54-37.99c-.03-1.93-1.23-3.56-3.05-4.18-1.82-.6-3.77-.02-4.95,1.49h0L18.87,65.93c-1.05,1.35-1.24,3.15-.5,4.7s2.28,2.51,4,2.52l35.51,.23c.54,0,1.03,.22,1.4,.62,.36,.39,.54,.9,.5,1.44l-4.53,61.49c-.15,2.02,1.03,3.85,2.94,4.53,.51,.18,1.03,.27,1.54,.27,1.41,0,2.76-.67,3.62-1.88L126.43,51.36c.98-1.37,1.1-3.15,.33-4.64Zm-2.42,3.16l-63.07,88.49c-.62,.87-1.55,.93-2.21,.69-.66-.24-1.34-.87-1.26-1.94l4.53-61.49c.09-1.23-.34-2.46-1.17-3.36s-2.03-1.43-3.26-1.44l-35.51-.23c-.75,0-1.39-.41-1.71-1.08s-.25-1.43,.21-2.01L70.86,3.3c.61-.79,1.5-.84,2.12-.64,.62,.21,1.29,.79,1.31,1.79l.54,37.99c.04,2.43,2.04,4.41,4.47,4.41h43.48c.73,0,1.37,.39,1.7,1.04,.33,.65,.28,1.4-.14,1.99Z"/></svg>