<?xml version="1.0" encoding="UTF-8"?><svg id="a" xmlns="http://www.w3.org/2000/svg" viewBox="0 0 141.73 141.73"><defs><style>.b{fill:#1d1d1b;}</style></defs><path class="b" d="M140.49,26.7h-5.16v-8.82c0-.69-.56-1.24-1.24-1.24h-53.74c-4.16,0-7.73,2.39-9.53,5.85-1.79-3.46-5.37-5.85-9.53-5.85H7.56c-.69,0-1.24,.56-1.24,1.24v8.82H1.15c-.69,0-1.24,.56-1.24,1.24V123.85c0,.69,.56,1.24,1.24,1.24H140.49c.69,0,1.24-.56,1.24-1.24V27.95c0-.69-.56-1.24-1.24-1.24ZM8.8,19.13H61.29c4.57,0,8.28,3.72,8.28,8.28V116.68c-2-2.41-5.01-3.92-8.28-3.92H8.8V19.13ZM2.39,122.61V29.19h3.92V114.01c0,.69,.56,1.24,1.24,1.24H61.29c3.86,0,7.26,2.74,8.08,6.52,.08,.39,.45,.69,.86,.85H2.39ZM72.06,27.41c0-4.57,3.72-8.28,8.28-8.28h52.5V112.76h-52.5c-3.27,0-6.28,1.51-8.28,3.92V27.41Zm67.19,95.2H71.57c.34-.16,.61-.46,.69-.85,.82-3.78,4.22-6.52,8.08-6.52h53.74c.69,0,1.24-.56,1.24-1.24V29.19h3.92V122.61Z"/><path class="b" d="M51.8,87.73H26.58c-.69,0-1.24,.56-1.24,1.24s.56,1.24,1.24,1.24h25.22c.69,0,1.24-.56,1.24-1.24s-.56-1.24-1.24-1.24Z"/><path class="b" d="M51.8,66.24H26.58c-.69,0-1.24,.56-1.24,1.24s.56,1.24,1.24,1.24h25.22c.69,0,1.24-.56,1.24-1.24s-.56-1.24-1.24-1.24Z"/><path class="b" d="M51.8,44.75H26.58c-.69,0-1.24,.56-1.24,1.24s.56,1.24,1.24,1.24h25.22c.69,0,1.24-.56,1.24-1.24s-.56-1.24-1.24-1.24Z"/><path class="b" d="M90.59,90.67h25.22c.69,0,1.24-.56,1.24-1.24s-.56-1.24-1.24-1.24h-25.22c-.69,0-1.24,.56-1.24,1.24s.56,1.24,1.24,1.24Z"/><path class="b" d="M90.59,69.18h25.22c.69,0,1.24-.56,1.24-1.24s-.56-1.24-1.24-1.24h-25.22c-.69,0-1.24,.56-1.24,1.24s.56,1.24,1.24,1.24Z"/><path class="b" d="M90.59,47.69h25.22c.69,0,1.24-.56,1.24-1.24s-.56-1.24-1.24-1.24h-25.22c-.69,0-1.24,.56-1.24,1.24s.56,1.24,1.24,1.24Z"/></svg>