<?xml version="1.0" encoding="UTF-8"?><svg id="a" xmlns="http://www.w3.org/2000/svg" viewBox="0 0 141.73 141.73"><defs><style>.b{fill:#fff;}</style></defs><path class="b" d="M138.5,3.05c-2.06-1.48-4.61-1.87-7.02-1.07L40.14,32.43c-3.19,1.06-5.33,4.03-5.33,7.39V112.87c-3.22-5.6-9.25-9.39-16.17-9.39-10.28,0-18.65,8.37-18.65,18.65s8.37,18.65,18.65,18.65,18.64-8.36,18.65-18.64h0v-51.3l101.95-31.08v38.31c-3.22-5.6-9.25-9.39-16.16-9.39-10.28,0-18.65,8.36-18.65,18.65s8.37,18.65,18.65,18.65,18.65-8.37,18.65-18.65V9.37c0-2.53-1.18-4.84-3.24-6.32ZM18.65,138.29c-8.91,0-16.16-7.25-16.16-16.16s7.25-16.17,16.16-16.17,16.16,7.25,16.16,16.17-7.25,16.16-16.16,16.16Zm104.44-34.81c-8.91,0-16.16-7.25-16.16-16.17s7.25-16.16,16.16-16.16,16.16,7.25,16.16,16.16-7.25,16.17-16.16,16.17Zm16.16-66.33l-101.95,31.08v-28.42c0-2.29,1.46-4.31,3.63-5.03L132.26,4.34c1.64-.55,3.38-.28,4.78,.73,1.4,1.01,2.2,2.58,2.2,4.31v27.78Z"/></svg>