<?xml version="1.0" encoding="UTF-8"?><svg id="a" xmlns="http://www.w3.org/2000/svg" viewBox="0 0 141.73 141.73"><defs><style>.b{fill:#1d1d1b;}</style></defs><path class="b" d="M70.76,41.38c-7.94,0-14.4,6.46-14.4,14.4s6.46,14.39,14.4,14.39,14.4-6.46,14.4-14.39-6.46-14.4-14.4-14.4Zm0,26.34c-6.58,0-11.94-5.36-11.94-11.94s5.36-11.94,11.94-11.94,11.94,5.36,11.94,11.94-5.36,11.94-11.94,11.94Z"/><path class="b" d="M106.7,69.01c-.1-.06-.2-.08-.31-.11C106.04,32.47,79.7,7.22,71.56,.29c-.46-.39-1.13-.39-1.59,0-8.18,6.96-34.73,32.4-34.85,69.1-3.94,2.69-26.72,19.91-16.15,51.71,.13,.4,.47,.71,.88,.81,.09,.02,.19,.03,.28,.03,.32,0,.64-.13,.87-.36l19.81-19.81v8.3c.01,3.36,2.75,6.09,6.1,6.09h10.05c-.76,4.53-1.56,17.88,13.23,25.43,.18,.09,.37,.13,.56,.13s.38-.05,.56-.13c14.79-7.55,13.99-20.91,13.23-25.43h10.13c3.36,0,6.09-2.73,6.09-6.09v-9.12l20.63,20.63c.23,.23,.55,.36,.87,.36,.09,0,.19,0,.28-.03,.41-.1,.75-.4,.88-.81,11.5-34.56-16.44-51.92-16.73-52.09ZM20.7,118.41c-3.83-12.95-2.4-24.73,4.26-35.03,3.59-5.55,7.85-9.23,10.21-11.01,.31,8.82,2.13,17.6,5.42,26.15l-19.89,19.89Zm50.06,20.71c-13.46-7.23-12.02-19.53-11.32-22.96h22.63c.66,3.4,2,15.8-11.31,22.96Zm27.55-29.05c0,2-1.63,3.64-3.64,3.64H46.92c-2,0-3.64-1.63-3.64-3.64v-10.03h55.04v10.03Zm.36-12.49H42.85c-3.46-9-5.23-18.25-5.29-27.53-.2-34.89,24.37-59.51,33.2-67.21,8.82,7.7,33.4,32.32,33.2,67.21-.05,9.28-1.83,18.53-5.29,27.53Zm23.03,20.83l-20.47-20.47s-.05-.03-.07-.05c3.22-8.55,4.97-17.34,5.21-26.16,2.01,1.41,6.93,5.26,11.02,11.56,6.71,10.33,8.16,22.13,4.32,35.12Z"/></svg>