<?xml version="1.0" encoding="UTF-8"?><svg id="a" xmlns="http://www.w3.org/2000/svg" viewBox="0 0 141.73 141.73"><defs><style>.b{fill:#fff;}</style></defs><path class="b" d="M70.87,.34C31.98,.34,.34,31.98,.34,70.87s31.64,70.53,70.53,70.53,70.53-31.64,70.53-70.53S109.76,.34,70.87,.34Zm0,138.59C33.34,138.92,2.81,108.39,2.81,70.87S33.34,2.81,70.87,2.81s68.06,30.53,68.06,68.06-30.53,68.06-68.06,68.06Z"/><path class="b" d="M95.59,44.39l-21.89,21.89c-.49-.3-1.02-.53-1.6-.67V15.42c0-.68-.55-1.24-1.24-1.24s-1.24,.55-1.24,1.24v50.2c-2.4,.56-4.2,2.71-4.2,5.28,0,3,2.44,5.44,5.44,5.44s5.44-2.44,5.44-5.44c0-1.06-.32-2.04-.84-2.88l21.88-21.88c.48-.48,.48-1.26,0-1.75s-1.26-.48-1.75,0Zm-24.73,29.47c-1.63,0-2.96-1.33-2.96-2.96s1.33-2.96,2.96-2.96,2.96,1.33,2.96,2.96-1.33,2.96-2.96,2.96Z"/></svg>