<?xml version="1.0" encoding="UTF-8"?><svg id="a" xmlns="http://www.w3.org/2000/svg" viewBox="0 0 141.73 141.73"><defs><style>.b{fill:none;stroke:#1d1d1b;stroke-linecap:round;stroke-linejoin:round;stroke-width:2.5px;}.c{fill:#1d1d1b;}</style></defs><path class="c" d="M114.35,2.5c.61,0,1.22,.03,1.83,.08,1.48,1.75,3.23,4.4,4.18,7.94,1.31,4.86,.54,9.07-.34,11.75-.3,.92-.04,1.93,.66,2.6,3.84,3.62,10.51,11.34,12.07,22.44,1.14,8.1-.54,16.78-4.75,24.43-3.91,7.13-9.47,12.37-15.25,14.39-4.52,1.58-10.97,1.91-15.58,1.91-3.7,0-6.44-.22-6.46-.22-.07,0-.13,0-.2,0-.79,0-1.54,.38-2.02,1.02-.51,.7-.63,1.62-.3,2.42,3.28,8.06,5.18,16.54,5.66,25.21,.42,7.67-.28,15.32-2.1,22.78H55.66c-1.81-7.46-2.52-15.11-2.1-22.78,.48-8.67,2.38-17.16,5.66-25.21,.33-.8,.21-1.72-.3-2.42-.47-.65-1.22-1.02-2.02-1.02-.07,0-.13,0-.2,0-.03,0-2.76,.22-6.46,.22-4.62,0-11.07-.33-15.58-1.91-5.78-2.02-11.33-7.26-15.25-14.39-4.2-7.66-5.89-16.33-4.75-24.43,1.56-11.09,8.24-18.82,12.07-22.44,.7-.66,.96-1.68,.66-2.6-.87-2.68-1.64-6.89-.34-11.75,.95-3.54,2.7-6.19,4.18-7.94,.6-.05,1.21-.08,1.83-.08,2.62,0,6.56,.5,10.44,2.86,3.49,2.13,5.61,4.96,6.78,6.96,.46,.79,1.29,1.24,2.16,1.24,.28,0,.56-.05,.84-.14,3.85-1.37,7.85-2.35,11.88-2.92,2.82-.4,5.69-.6,8.54-.6,2.85,0,5.72,.2,8.53,.6,4.03,.57,8.03,1.55,11.88,2.92,.27,.1,.56,.14,.84,.14,.87,0,1.7-.46,2.16-1.24,1.16-2,3.28-4.83,6.78-6.96,3.88-2.37,7.82-2.86,10.44-2.86M114.35,0C111.37,0,106.98,.56,102.6,3.23c-4.23,2.58-6.55,5.98-7.63,7.84-3.36-1.19-7.53-2.35-12.37-3.04-3.19-.45-6.18-.62-8.88-.62-3.45,0-6.46,.28-8.89,.62-4.84,.68-9,1.84-12.37,3.04-1.08-1.86-3.41-5.26-7.63-7.84C40.44,.56,36.05,0,33.08,0,31.72,0,30.65,.12,30.02,.2c-1.45,1.56-4.06,4.8-5.37,9.67-1.64,6.08-.29,11.14,.37,13.17-3.37,3.18-11.07,11.37-12.83,23.91-2.6,18.4,8.8,37.05,21.65,41.53,4.81,1.68,11.48,2.05,16.41,2.05,3.86,0,6.66-.23,6.66-.23-2.36,5.8-5.22,14.75-5.84,26.02-.59,10.7,1.06,19.52,2.65,25.42h39.97c1.59-5.9,3.24-14.71,2.65-25.42-.62-11.26-3.48-20.22-5.84-26.02,0,0,2.8,.23,6.66,.23,4.93,0,11.6-.37,16.41-2.05,12.85-4.48,24.25-23.13,21.65-41.53-1.77-12.54-9.46-20.73-12.83-23.91,.66-2.03,2.01-7.09,.37-13.17-1.31-4.87-3.92-8.11-5.37-9.67C116.77,.12,115.7,0,114.35,0h0Z"/><path class="b" d="M6.01,91.86c9.44,2.69,14.83,7.02,18.02,10.52,7.08,7.77,6.26,14.66,14.07,18.58,4.75,2.38,12.96,3.79,12.96,3.79h0"/></svg>