<?xml version="1.0" encoding="UTF-8"?><svg id="a" xmlns="http://www.w3.org/2000/svg" viewBox="0 0 141.73 141.73"><defs><style>.b{fill:none;stroke:#1d1d1b;stroke-linecap:round;stroke-linejoin:round;stroke-width:2.5px;}.c{fill:#1d1d1b;}</style></defs><path class="c" d="M30.92,52.9v86.34H4.42V52.9H30.92m2.5-2.5H1.92v91.34h31.51V50.4h0Z"/><polyline class="b" points="139.82 47.51 139.82 141.73 108.31 141.73"/><polyline class="b" points="86.63 141.73 55.12 141.73 55.12 47.51"/><path class="c" d="M17.67,2.54c7.31,0,13.25,5.95,13.25,13.25s-5.95,13.25-13.25,13.25S4.42,23.1,4.42,15.8,10.36,2.54,17.67,2.54M17.67,.04C8.97,.04,1.92,7.1,1.92,15.8s7.05,15.75,15.75,15.75,15.75-7.05,15.75-15.75S26.37,.04,17.67,.04h0Z"/><path class="b" d="M55.12,47.51c0-23.35,18.93-42.27,42.27-42.27s42.27,18.93,42.27,42.27"/><path class="b" d="M86.63,141.73V47.51c0-5.99,4.85-10.84,10.84-10.84s10.84,4.85,10.84,10.84v94.22"/></svg>